<svg width="137" height="137" viewBox="0 0 137 137" fill="none" xmlns="http://www.w3.org/2000/svg">
<g clip-path="url(#clip0_27103_35450)">
<path d="M68.9998 33.3516C48.386 33.3516 31.6753 50.0623 31.6753 70.6761C31.6753 80.8948 35.7832 90.1528 42.4361 96.8931L74.3644 107.615C92.4361 105.014 106.324 89.468 106.324 70.6762C106.324 50.0623 89.6136 33.3516 68.9998 33.3516Z" fill="#FEF156"/>
<path d="M71.9701 47.7145L65.1992 30C58.4402 30 52.2169 32.2906 47.2606 36.1361V37.5329L44.3441 38.7259C39.1288 44.0146 35.9087 51.276 35.9087 59.2905C35.937 59.4165 35.7521 62.7393 37.0079 67.2133L38.721 68.2683L37.864 69.8032C38.8514 72.3866 40.3395 75.1906 42.5803 77.904L46.7316 79.0466L44.9954 80.4939C45.9241 81.3779 46.6745 82.1965 47.3529 84.3534C48.3727 87.5958 47.5692 91.1378 45.3065 93.6744L42.4356 96.8925C47.6256 102.151 54.3657 105.873 61.9139 107.325L61.9151 107.325L61.9157 107.325L63.3624 106.126L64.7335 107.756C66.134 107.915 67.5567 108 68.9996 108C70.8215 108 72.6121 107.867 74.3642 107.615C74.3706 104.806 74.3746 101.544 74.3761 101.499C74.429 99.8779 75.1374 99.5314 76.8515 96.3567C77.0592 96.0031 77.44 95.7653 77.8575 95.7324L71.9701 47.7145Z" fill="#1D2E79"/>
<path d="M62.6647 53.1358C61.8251 51.8668 61.9249 50.5656 62.1988 49.6315C62.5014 48.5993 63.0561 47.8346 63.2185 47.625L64.7341 46.1911V37.431C64.7341 36.8311 64.3234 36.3265 63.7687 36.1803C62.3045 33.2024 64.2858 30.6662 64.882 30.0034C64.9879 30.0023 65.0935 30 65.1995 30C70.1594 30 74.9491 31.1155 79.2066 33.1279V54.1712L62.6647 53.1358Z" fill="#2A428B"/>
<path d="M95.786 64.6375C94.8415 63.4963 94.5112 61.9677 94.8989 60.5379C95.0479 59.8245 95.5677 58.5867 95.6338 56.7825L75.5252 53.5039L63.4393 55.0273L63.0047 70.7171C62.1939 71.8536 59.9688 75.6149 63.2108 78.9377V84.8119L63.2248 84.85C63.2516 84.923 63.9049 86.6618 66.0348 88.911C69.4601 92.5284 74.0683 94.6608 77.4493 95.8346C77.7294 95.7135 78.0553 95.6882 78.3714 95.7983C81.0933 96.624 82.9794 97.8001 86.1466 97.6603C87.6897 97.5922 89.1188 96.8434 90.0289 95.5954C92.09 92.769 91.5374 90.0787 91.6285 89.209C91.6285 86.7721 93.5491 85.7456 94.2068 84.947C95.2142 83.9731 94.5896 82.7565 94.5752 82.5172C94.5234 82.312 94.5948 82.0955 94.7584 81.9613L96.5774 80.4698C96.7384 80.3377 96.8318 80.1406 96.8318 79.9323V77.3207C96.8318 77.1336 96.95 76.9677 97.1268 76.9065C98.2354 76.5221 102.091 75.0721 102.091 73.4996C102.091 72.4818 98.7578 68.2279 95.786 64.6375Z" fill="#2A428B"/>
<path d="M80.5015 67.4766C79.6602 67.4766 78.978 68.1588 78.978 69V77.6755H63.439C62.5976 77.6755 61.9155 78.3577 61.9155 79.199V87.8559C61.9155 88.6971 62.5976 89.3793 63.439 89.3793C64.2802 89.3793 64.9624 88.6971 64.9624 87.8559V80.7224H80.5015C81.3427 80.7224 82.0249 80.0402 82.0249 79.199V69C82.0249 68.1588 81.3429 67.4766 80.5015 67.4766Z" fill="#02C0FC"/>
<path d="M46.8642 44.5668C46.8642 45.4081 47.5464 46.0902 48.3876 46.0902C49.2289 46.0902 49.9111 45.4081 49.9111 44.5668V38.9551H61.9155V46.1917C61.9155 47.033 62.5975 47.7151 63.4389 47.7151C64.2801 47.7151 64.9623 47.033 64.9623 46.1917V37.4316C64.9623 36.5904 64.2801 35.9082 63.4389 35.9082H47.5587C46.3342 36.8334 45.1849 37.8527 44.1211 38.9551H46.8642V44.5668Z" fill="#95DB76"/>
<path d="M78.4432 53.5045L76.4991 52.6484H63.439C62.5976 52.6484 61.9155 53.3306 61.9155 54.1719V69.0007C61.9155 69.842 62.5976 70.5241 63.439 70.5241C64.2802 70.5241 64.9624 69.842 64.9624 69.0007V55.6952H77.6149C78.0349 54.9609 78.4432 53.5045 78.4432 53.5045Z" fill="#FEF156"/>
<path d="M53.7294 77.6758H42.3926C43.2285 78.7091 44.1733 79.7303 45.239 80.7227H52.206V96.7188C52.206 97.56 52.888 98.2422 53.7294 98.2422H61.9159V107.326C62.918 107.518 63.9338 107.672 64.9628 107.782V96.7188C64.9628 95.8775 64.2806 95.1953 63.4393 95.1953H55.2528V79.1992C55.2528 78.358 54.5706 77.6758 53.7294 77.6758Z" fill="#9957BC"/>
<path d="M49.9114 68.5091V54.1719C49.9114 53.3306 49.2292 52.6484 48.388 52.6484C47.5467 52.6484 46.8645 53.3306 46.8645 54.1719V66.9857H36.9448C37.2079 67.952 37.5381 68.9745 37.9526 70.0325H48.3881C49.2294 70.0325 49.9114 69.3503 49.9114 68.5091Z" fill="#1D8DF2"/>
<path d="M63.439 71.5938C65.1427 71.5938 66.5239 70.2126 66.5239 68.5088C66.5239 66.805 65.1427 65.4238 63.439 65.4238C61.7352 65.4238 60.354 66.805 60.354 68.5088C60.354 70.2126 61.7352 71.5938 63.439 71.5938Z" fill="#FFFBB3"/>
<path d="M48.3882 57.2559C50.092 57.2559 51.4731 55.8747 51.4731 54.1709C51.4731 52.4671 50.092 51.0859 48.3882 51.0859C46.6844 51.0859 45.3032 52.4671 45.3032 54.1709C45.3032 55.8747 46.6844 57.2559 48.3882 57.2559Z" fill="#27A6FF"/>
<path d="M63.439 49.2754C65.1427 49.2754 66.5239 47.8942 66.5239 46.1904C66.5239 44.4867 65.1427 43.1055 63.439 43.1055C61.7352 43.1055 60.354 44.4867 60.354 46.1904C60.354 47.8942 61.7352 49.2754 63.439 49.2754Z" fill="#BAEE63"/>
<path d="M53.854 99.9258C55.5578 99.9258 56.939 98.5446 56.939 96.8408C56.939 95.137 55.5578 93.7559 53.854 93.7559C52.1502 93.7559 50.769 95.137 50.769 96.8408C50.769 98.5446 52.1502 99.9258 53.854 99.9258Z" fill="#BB81E3"/>
<path d="M63.439 90.9414C65.1427 90.9414 66.5239 89.5602 66.5239 87.8564C66.5239 86.1527 65.1427 84.7715 63.439 84.7715C61.7352 84.7715 60.354 86.1527 60.354 87.8564C60.354 89.5602 61.7352 90.9414 63.439 90.9414Z" fill="#64F9EA"/>
<path d="M80.5015 71.5938C82.2052 71.5938 83.5864 70.2126 83.5864 68.5088C83.5864 66.805 82.2052 65.4238 80.5015 65.4238C78.7977 65.4238 77.4165 66.805 77.4165 68.5088C77.4165 70.2126 78.7977 71.5938 80.5015 71.5938Z" fill="#64F9EA"/>
<path d="M88.508 57.0109H80.2559C78.0642 57.0109 76.271 55.2176 76.271 53.026V36.8677C76.271 34.6761 78.0642 32.8828 80.2559 32.8828H88.3351L91.6649 42.6365L88.508 57.0109Z" fill="#FE3D97"/>
<path d="M96.4142 32.8828H88.0303C88.0303 32.8828 84.9072 34.7265 86.2402 38.192C87.5732 41.6575 88.9063 51.5979 88.9063 51.5979C88.9063 51.5979 85.5833 53.9308 88.2033 57.0109H96.4142C98.6058 57.0109 100.399 55.2176 100.399 53.026V36.8677C100.399 34.6759 98.6058 32.8828 96.4142 32.8828Z" fill="#FD77A6"/>
<path d="M88.7347 50.042H82.1621C81.2947 50.042 80.5913 49.3387 80.5913 48.4712C80.5913 47.6038 81.2945 46.9004 82.1621 46.9004H88.7347C89.6021 46.9004 90.3054 47.6036 90.3054 48.4712C90.3054 49.3388 89.6021 50.042 88.7347 50.042Z" fill="#ADE9F7"/>
<path d="M90.0941 52.3284C89.4592 52.3284 88.8617 51.9408 88.6243 51.3118L85.4518 42.9058L82.2486 51.3164C81.9399 52.1268 81.0323 52.5339 80.2216 52.2251C79.411 51.9164 79.004 51.0088 79.3128 50.1982L83.742 38.5685C83.7466 38.5565 83.7511 38.5448 83.756 38.5329C84.0395 37.8397 84.7066 37.3914 85.4554 37.3906H85.4574C86.2056 37.3906 86.8725 37.8374 87.1572 38.5295C87.163 38.5437 87.1688 38.558 87.1741 38.5725L91.5632 50.2026C91.8695 51.0143 91.4599 51.9206 90.6483 52.2268C90.4657 52.2958 90.2783 52.3284 90.0941 52.3284Z" fill="#E8F8FC"/>
<path d="M94.9146 52.3279C94.0471 52.3279 93.3438 51.6246 93.3438 50.7571V38.9614C93.3438 38.094 94.0471 37.3906 94.9146 37.3906C95.782 37.3906 96.4852 38.0938 96.4852 38.9614V50.7573C96.4854 51.6247 95.782 52.3279 94.9146 52.3279Z" fill="#E8F8FC"/>
</g>
<defs>
<clipPath id="clip0_27103_35450">
<rect width="78" height="78" fill="white" transform="translate(30 30)"/>
</clipPath>
</defs>
</svg>
