<svg width="137" height="137" viewBox="0 0 137 137" fill="none" xmlns="http://www.w3.org/2000/svg">
<path d="M108.915 104.109H28.0435C24.3354 104.109 21.3291 101.103 21.3291 97.3945H115.629C115.629 101.103 112.623 104.109 108.915 104.109Z" fill="#0F65B2"/>
<path d="M102.571 97.5259H37.1314C33.0058 97.5259 29.6611 94.1813 29.6611 90.0556V53.3922C29.6611 49.2665 33.0058 45.9219 37.1314 45.9219H102.571C106.696 45.9219 110.041 49.2665 110.041 53.3922V90.0556C110.041 94.1817 106.696 97.5259 102.571 97.5259Z" fill="#D7EFF5"/>
<path d="M101.859 96.7326H37.8442C33.8081 96.7326 30.5361 93.4909 30.5361 89.4918V53.9547C30.5361 49.9555 33.8077 46.7139 37.8442 46.7139H101.859C105.894 46.7139 109.167 49.9555 109.167 53.9547V89.4918C109.166 93.4909 105.894 96.7326 101.859 96.7326Z" fill="white"/>
<path d="M102.867 94.6489H36.8356C34.8335 94.6489 33.2104 93.0259 33.2104 91.0237V52.9015C33.2104 50.8994 34.8335 49.2764 36.8356 49.2764H102.867C104.869 49.2764 106.492 50.8994 106.492 52.9015V91.0237C106.492 93.0259 104.869 94.6489 102.867 94.6489Z" fill="#7190FF"/>
<path d="M65.9354 48.7755C65.7319 48.7755 65.5669 48.6105 65.5669 48.4069V47.0931C65.5669 46.8896 65.7319 46.7246 65.9354 46.7246C66.1389 46.7246 66.3039 46.8896 66.3039 47.0931V48.4069C66.3035 48.6105 66.1385 48.7755 65.9354 48.7755Z" fill="#465263"/>
<path d="M66.93 48.7755C66.7265 48.7755 66.5615 48.6105 66.5615 48.4069V47.0931C66.5615 46.8896 66.7265 46.7246 66.93 46.7246C67.1336 46.7246 67.2986 46.8896 67.2986 47.0931V48.4069C67.2982 48.6105 67.1332 48.7755 66.93 48.7755Z" fill="#465263"/>
<path d="M67.9266 48.7755C67.7231 48.7755 67.5581 48.6105 67.5581 48.4069V47.0931C67.5581 46.8896 67.7231 46.7246 67.9266 46.7246C68.1301 46.7246 68.2952 46.8896 68.2952 47.0931V48.4069C68.2952 48.6105 68.1301 48.7755 67.9266 48.7755Z" fill="#465263"/>
<path d="M68.9217 48.7755C68.7182 48.7755 68.5532 48.6105 68.5532 48.4069V47.0931C68.5532 46.8896 68.7182 46.7246 68.9217 46.7246C69.1253 46.7246 69.2903 46.8896 69.2903 47.0931V48.4069C69.2903 48.6105 69.1253 48.7755 68.9217 48.7755Z" fill="#465263"/>
<path d="M69.9156 48.7755C69.7121 48.7755 69.5479 48.6105 69.5479 48.4069V47.0931C69.5479 46.8896 69.7121 46.7246 69.9156 46.7246C70.1191 46.7246 70.2841 46.8896 70.2841 47.0931V48.4069C70.2841 48.6105 70.1191 48.7755 69.9156 48.7755Z" fill="#465263"/>
<path d="M70.913 48.7755C70.7091 48.7755 70.5444 48.6105 70.5444 48.4069V47.0931C70.5444 46.8896 70.7087 46.7246 70.913 46.7246C71.1165 46.7246 71.2807 46.8896 71.2807 47.0931V48.4069C71.2803 48.6105 71.1161 48.7755 70.913 48.7755Z" fill="#465263"/>
<path d="M86.3589 89.9676H52.8436C50.9877 89.9676 49.4829 88.4629 49.4829 86.6069C49.4829 84.3855 51.2839 82.585 53.5049 82.585H86.3586C88.2149 82.585 89.7189 84.0893 89.7189 85.9457V86.6073C89.7193 88.4629 88.2153 89.9676 86.3589 89.9676Z" fill="#F9F9FF"/>
<path d="M59.9572 85.8293H59.2665C59.1675 85.8293 59.118 85.709 59.1879 85.6395L59.6763 85.1511C59.7195 85.1079 59.7195 85.0376 59.6763 84.9944L59.2103 84.5284C59.1671 84.4852 59.0964 84.4852 59.0532 84.5284L58.5652 85.0168C58.4949 85.0867 58.3754 85.0372 58.3754 84.9382V84.2475C58.3754 84.1862 58.3255 84.1367 58.2643 84.1367H57.6054C57.5441 84.1367 57.4942 84.1862 57.4942 84.2475V84.9382C57.4942 85.0372 57.3744 85.0867 57.3044 85.0168L56.8165 84.5284C56.7733 84.4852 56.7025 84.4852 56.6593 84.5284L56.1934 84.9944C56.1502 85.0376 56.1502 85.1079 56.1934 85.1511L56.6817 85.6395C56.7517 85.7094 56.7022 85.8293 56.6031 85.8293H55.9125C55.8512 85.8293 55.8013 85.8788 55.8013 85.9401V86.5989C55.8013 86.6606 55.8512 86.7101 55.9125 86.7101H56.6031C56.7022 86.7101 56.7517 86.8299 56.6813 86.8999L56.1934 87.3878C56.1502 87.431 56.1502 87.5018 56.1934 87.545L56.6593 88.0109C56.7025 88.0542 56.7733 88.0542 56.8165 88.0109L57.3044 87.523C57.3748 87.4526 57.4942 87.5026 57.4942 87.6016V88.2918C57.4942 88.3531 57.5441 88.403 57.6054 88.403H58.2643C58.3255 88.403 58.3754 88.3531 58.3754 88.2918V87.6016C58.3754 87.5026 58.4953 87.4526 58.5652 87.523L59.0532 88.0109C59.0964 88.0542 59.1671 88.0542 59.2103 88.0109L59.6763 87.545C59.7195 87.5018 59.7195 87.431 59.6763 87.3878L59.1879 86.8999C59.118 86.8295 59.1675 86.7101 59.2665 86.7101H59.9572C60.0185 86.7101 60.0684 86.6606 60.0684 86.5989V85.9401C60.0684 85.8788 60.0185 85.8293 59.9572 85.8293Z" fill="#465263"/>
<path d="M67.7361 85.8293H67.0454C66.9464 85.8293 66.8969 85.709 66.9668 85.6395L67.4552 85.1511C67.4984 85.1079 67.4984 85.0376 67.4552 84.9944L66.9892 84.5284C66.946 84.4852 66.8753 84.4852 66.8321 84.5284L66.3437 85.0168C66.2738 85.0867 66.1543 85.0372 66.1543 84.9382V84.2475C66.1543 84.1862 66.1045 84.1367 66.0432 84.1367H65.3843C65.323 84.1367 65.2731 84.1862 65.2731 84.2475V84.9382C65.2731 85.0372 65.1533 85.0867 65.0833 85.0168L64.5954 84.5284C64.5522 84.4852 64.4814 84.4852 64.4382 84.5284L63.9727 84.9944C63.9294 85.0376 63.9294 85.1079 63.9727 85.1511L64.4606 85.6395C64.531 85.7094 64.4814 85.8293 64.3824 85.8293H63.6918C63.6305 85.8293 63.5806 85.8788 63.5806 85.9401V86.5989C63.5806 86.6606 63.6305 86.7101 63.6918 86.7101H64.3824C64.4814 86.7101 64.531 86.8299 64.4606 86.8999L63.9727 87.3878C63.9294 87.431 63.9294 87.5018 63.9727 87.545L64.4382 88.0109C64.4814 88.0542 64.5522 88.0542 64.5954 88.0109L65.0833 87.523C65.1537 87.4526 65.2731 87.5026 65.2731 87.6016V88.2918C65.2731 88.3531 65.323 88.403 65.3843 88.403H66.0432C66.1045 88.403 66.1543 88.3531 66.1543 88.2918V87.6016C66.1543 87.5026 66.2742 87.4526 66.3437 87.523L66.8321 88.0109C66.8753 88.0542 66.946 88.0542 66.9892 88.0109L67.4552 87.545C67.4984 87.5018 67.4984 87.431 67.4552 87.3878L66.9668 86.8999C66.8969 86.8295 66.9464 86.7101 67.0454 86.7101H67.7361C67.7974 86.7101 67.8473 86.6606 67.8473 86.5989V85.9401C67.8473 85.8788 67.7974 85.8293 67.7361 85.8293Z" fill="#465263"/>
<path d="M75.5132 85.8293H74.8225C74.7235 85.8293 74.6736 85.709 74.7435 85.6395L75.2322 85.1511C75.2751 85.1079 75.2751 85.0376 75.2322 84.9944L74.7655 84.5284C74.7227 84.4852 74.652 84.4852 74.6091 84.5284L74.1204 85.0168C74.0504 85.0867 73.9306 85.0372 73.9306 84.9382V84.2475C73.9306 84.1862 73.8807 84.1367 73.8194 84.1367H73.161C73.0997 84.1367 73.0498 84.1862 73.0498 84.2475V84.9382C73.0498 85.0372 72.9299 85.0867 72.8596 85.0168L72.3717 84.5284C72.3288 84.4852 72.2581 84.4852 72.2145 84.5284L71.7485 84.9944C71.7057 85.0376 71.7057 85.1079 71.7485 85.1511L72.2365 85.6395C72.3072 85.7094 72.2573 85.8293 72.1583 85.8293H71.4676C71.4063 85.8293 71.3564 85.8788 71.3564 85.9401V86.5989C71.3564 86.6606 71.4063 86.7101 71.4676 86.7101H72.1583C72.2573 86.7101 72.3072 86.8299 72.2365 86.8999L71.7485 87.3878C71.7057 87.431 71.7057 87.5018 71.7485 87.545L72.2145 88.0109C72.2581 88.0542 72.3288 88.0542 72.3717 88.0109L72.8596 87.523C72.9303 87.4526 73.0498 87.5026 73.0498 87.6016V88.2918C73.0498 88.3531 73.0997 88.403 73.161 88.403H73.8194C73.8807 88.403 73.9306 88.3531 73.9306 88.2918V87.6016C73.9306 87.5026 74.0504 87.4526 74.1204 87.523L74.6091 88.0109C74.652 88.0542 74.7227 88.0542 74.7655 88.0109L75.2322 87.545C75.2751 87.5018 75.2751 87.431 75.2322 87.3878L74.7435 86.8999C74.6736 86.8295 74.7235 86.7101 74.8225 86.7101H75.5132C75.5744 86.7101 75.6236 86.6606 75.6236 86.5989V85.9401C75.6239 85.8788 75.5748 85.8293 75.5132 85.8293Z" fill="#465263"/>
<path d="M83.2894 85.8293H82.5987C82.4997 85.8293 82.4498 85.709 82.5205 85.6395L83.0085 85.1511C83.0521 85.1079 83.0521 85.0376 83.0085 84.9944L82.5429 84.5284C82.4993 84.4852 82.4294 84.4852 82.3858 84.5284L81.8978 85.0168C81.8279 85.0867 81.7077 85.0372 81.7077 84.9382V84.2475C81.7077 84.1862 81.6585 84.1367 81.5973 84.1367H80.938C80.8767 84.1367 80.8268 84.1862 80.8268 84.2475V84.9382C80.8268 85.0372 80.707 85.0867 80.6374 85.0168L80.1495 84.5284C80.1059 84.4852 80.0352 84.4852 79.9923 84.5284L79.5256 84.9944C79.4828 85.0376 79.4828 85.1079 79.5256 85.1511L80.0143 85.6395C80.0843 85.7094 80.0344 85.8293 79.9354 85.8293H79.2455C79.1834 85.8293 79.1343 85.8788 79.1343 85.9401V86.5989C79.1343 86.6606 79.1834 86.7101 79.2455 86.7101H79.9354C80.0344 86.7101 80.0843 86.8299 80.0143 86.8999L79.5256 87.3878C79.4828 87.431 79.4828 87.5018 79.5256 87.545L79.9923 88.0109C80.0352 88.0542 80.1059 88.0542 80.1495 88.0109L80.6374 87.523C80.7074 87.4526 80.8268 87.5026 80.8268 87.6016V88.2918C80.8268 88.3531 80.8767 88.403 80.938 88.403H81.5973C81.6585 88.403 81.7077 88.3531 81.7077 88.2918V87.6016C81.7077 87.5026 81.8283 87.4526 81.8978 87.523L82.3858 88.0109C82.4294 88.0542 82.4993 88.0542 82.5429 88.0109L83.0085 87.545C83.0521 87.5018 83.0521 87.431 83.0085 87.3878L82.5205 86.8999C82.4498 86.8295 82.4997 86.7101 82.5987 86.7101H83.2894C83.3507 86.7101 83.4006 86.6606 83.4006 86.5989V85.9401C83.401 85.8788 83.3511 85.8293 83.2894 85.8293Z" fill="#465263"/>
<path d="M74.3332 67.399C74.3332 67.0933 74.3332 66.6195 74.3332 65.8911C74.3332 63.1881 72.48 61.0508 69.6009 61.0508C66.7215 61.0508 64.8686 63.1885 64.8686 65.8911C64.8686 66.6195 64.8686 67.0933 64.8686 67.399C64.1846 67.3994 63.6299 67.9537 63.6299 68.6381V76.0636C63.6299 76.7477 64.1846 77.3024 64.869 77.3024H74.3324C75.0168 77.3024 75.5716 76.7477 75.5716 76.0636V68.6381C75.5716 67.9537 75.0168 67.3994 74.3332 67.399ZM70.2629 72.9775V74.5825C70.2629 74.9482 69.9659 75.2449 69.6005 75.2449C69.2344 75.2449 68.9381 74.9482 68.9381 74.5825V72.9775C68.2639 72.6911 67.8129 71.9816 67.9194 71.1821C68.02 70.425 68.6431 69.8152 69.4017 69.7296C70.4275 69.6129 71.297 70.4124 71.297 71.415C71.2974 72.1167 70.8707 72.7194 70.2629 72.9775ZM72.6917 67.399H66.5093C66.5093 67.0772 66.5093 66.5724 66.5093 65.8911C66.5093 64.628 67.1454 62.6632 69.6009 62.6632C72.0564 62.6632 72.6917 64.628 72.6917 65.8911C72.6917 66.572 72.6917 67.0768 72.6917 67.399Z" fill="white"/>
<path d="M78.4357 99.9429H61.2663C59.9329 99.9429 58.8521 98.9202 58.8521 97.6586C58.8521 96.3971 59.9329 95.374 61.2663 95.374H78.4357C79.7688 95.374 80.8492 96.3971 80.8492 97.6586C80.8488 98.9198 79.7684 99.9429 78.4357 99.9429Z" fill="#465263"/>
<path d="M110.286 104.112H27.9868C24.2788 104.112 21.2725 101.106 21.2725 97.3975H22.701H117C117 101.106 113.994 104.112 110.286 104.112Z" fill="#64748B"/>
<path d="M27.0228 99.5635C27.4884 99.5635 27.8659 99.941 27.8659 100.406V100.64C27.8659 101.106 27.4884 101.483 27.0228 101.483C26.5569 101.483 26.1797 101.106 26.1797 100.64V100.406C26.1797 99.941 26.5569 99.5635 27.0228 99.5635Z" fill="white"/>
<path d="M31.7339 99.5635C32.1994 99.5635 32.577 99.941 32.577 100.406V100.64C32.577 101.106 32.1994 101.483 31.7339 101.483C31.2683 101.483 30.8911 101.106 30.8911 100.64V100.406C30.8907 99.941 31.2679 99.5635 31.7339 99.5635Z" fill="white"/>
<path d="M36.4438 99.5635C36.9094 99.5635 37.2869 99.941 37.2869 100.406V100.64C37.2869 101.106 36.9094 101.483 36.4438 101.483C35.9779 101.483 35.6011 101.106 35.6011 100.64V100.406C35.6011 99.941 35.9782 99.5635 36.4438 99.5635Z" fill="white"/>
<path d="M41.1552 99.5635C41.6208 99.5635 41.9984 99.941 41.9984 100.406V100.64C41.9984 101.106 41.6208 101.483 41.1552 101.483C40.6901 101.483 40.3125 101.106 40.3125 100.64V100.406C40.3125 99.941 40.6901 99.5635 41.1552 99.5635Z" fill="white"/>
<path d="M45.8642 99.5635C46.3298 99.5635 46.7073 99.941 46.7073 100.406V100.64C46.7073 101.106 46.3298 101.483 45.8642 101.483C45.3987 101.483 45.0215 101.106 45.0215 100.64V100.406C45.0211 99.941 45.3987 99.5635 45.8642 99.5635Z" fill="white"/>
<path d="M50.5747 99.5635C51.0402 99.5635 51.4178 99.941 51.4178 100.406V100.64C51.4178 101.106 51.0402 101.483 50.5747 101.483C50.1095 101.483 49.7319 101.106 49.7319 100.64V100.406C49.7315 99.941 50.1091 99.5635 50.5747 99.5635Z" fill="white"/>
<path d="M89.125 99.5635C89.5909 99.5635 89.9681 99.941 89.9681 100.406V100.64C89.9681 101.106 89.5905 101.483 89.125 101.483C88.6598 101.483 88.2822 101.106 88.2822 100.64V100.406C88.2822 99.941 88.6598 99.5635 89.125 99.5635Z" fill="white"/>
<path d="M93.8352 99.5635C94.3008 99.5635 94.678 99.941 94.678 100.406V100.64C94.678 101.106 94.3012 101.483 93.8352 101.483C93.3693 101.483 92.9917 101.106 92.9917 100.64V100.406C92.9921 99.941 93.3697 99.5635 93.8352 99.5635Z" fill="white"/>
<path d="M98.5459 99.5635C99.0118 99.5635 99.3894 99.941 99.3894 100.406V100.64C99.3894 101.106 99.0118 101.483 98.5459 101.483C98.0807 101.483 97.7031 101.106 97.7031 100.64V100.406C97.7035 99.941 98.0811 99.5635 98.5459 99.5635Z" fill="white"/>
<path d="M103.257 99.5635C103.723 99.5635 104.1 99.941 104.1 100.406V100.64C104.1 101.106 103.723 101.483 103.257 101.483C102.791 101.483 102.415 101.106 102.415 100.64V100.406C102.415 99.941 102.791 99.5635 103.257 99.5635Z" fill="white"/>
<path d="M107.967 99.5635C108.432 99.5635 108.81 99.941 108.81 100.406V100.64C108.81 101.106 108.432 101.483 107.967 101.483C107.502 101.483 107.124 101.106 107.124 100.64V100.406C107.124 99.941 107.501 99.5635 107.967 99.5635Z" fill="white"/>
<path d="M112.677 99.5635C113.142 99.5635 113.52 99.941 113.52 100.406V100.64C113.52 101.106 113.142 101.483 112.677 101.483C112.211 101.483 111.834 101.106 111.834 100.64V100.406C111.834 99.941 112.211 99.5635 112.677 99.5635Z" fill="white"/>
<path d="M46.8257 39.9013C44.4656 38.7227 42.7789 37.0934 42.27 34.675C39.4267 33.581 28.3997 33.581 25.5568 34.675C25.0479 37.0934 23.3612 38.7227 21.0008 39.9013C20.9161 52.047 24.9079 60.6667 33.9138 64.1309C43.6814 60.8392 46.911 52.047 46.8257 39.9013Z" fill="#639FDB"/>
<path d="M46.8257 39.9013C44.4656 38.7227 42.7789 37.0934 42.27 34.675C39.4267 33.581 28.3997 33.581 25.5568 34.675C25.0479 37.0934 23.3612 38.7227 21.0008 39.9013C20.9161 52.047 24.9079 60.6667 33.9138 64.1309C43.6814 60.8392 46.911 52.047 46.8257 39.9013Z" fill="white" stroke="#D7EFF5" stroke-width="1.01928"/>
<path d="M44.2706 41.7024C42.3775 40.757 41.0247 39.4503 40.6166 37.5105C38.336 36.6332 29.4918 36.6332 27.2115 37.5105C26.8035 39.4503 25.4504 40.757 23.5572 41.7024C23.4891 51.4438 26.6907 58.3574 33.9142 61.1359C41.7485 58.4957 44.3387 51.4438 44.2706 41.7024Z" fill="#7190FF" stroke="#9CB2FF" stroke-width="1.37508" stroke-miterlimit="10" stroke-linecap="round" stroke-linejoin="round"/>
<path d="M38.5446 43.4155L31.446 50.1236L29.3402 47.8448C28.9426 47.4144 28.2703 47.3918 27.8447 47.7945C27.4275 48.1897 27.4046 48.8469 27.7932 49.2701L30.6145 52.3403C31.0115 52.7721 31.6851 52.7959 32.1113 52.3929L39.9904 44.9456C40.4068 44.5518 40.4315 43.8976 40.0464 43.4735L40.0452 43.4726C39.6491 43.0364 38.9722 43.0108 38.5446 43.4155Z" fill="white"/>
</svg>
