<svg width="137" height="137" viewBox="0 0 137 137" fill="none" xmlns="http://www.w3.org/2000/svg">
<path d="M68.506 38C46.8732 38.0592 39.437 52.0839 39.437 69.3836C39.437 71.7899 39.7029 74.1301 40.1942 76.3819H44.0163C44.0163 76.3819 43.518 71.2975 43.647 68.5694C44.0999 58.9626 46.8662 51.4811 53.4245 46.8182C56.9225 44.3318 62.0325 43.5502 68.506 43.5165C74.9794 43.5513 80.0894 44.3318 83.5874 46.8182C90.1468 51.48 92.912 58.9615 93.365 68.5694C93.4939 71.2963 92.9957 76.3819 92.9957 76.3819H96.8177C97.3089 74.1301 97.5749 71.7899 97.5749 69.3836C97.5749 52.0839 90.1387 38.0581 68.506 38Z" fill="#382040"/>
<path d="M41.3992 85.2004C41.7976 89.4046 39.8488 92.999 37.0511 93.2336C34.2522 93.4647 31.66 90.2431 31.2629 86.0413C30.8657 81.8395 32.8121 78.2462 35.6099 78.0116C38.4099 77.7816 41.0021 80.9986 41.3992 85.2004Z" fill="#EE97BC"/>
<path d="M41.2301 92.8326C41.3648 94.2634 40.236 95.5293 38.7064 95.6559C37.1769 95.7825 35.8274 94.7256 35.6915 93.2902L34.2189 77.7314C34.0842 76.2982 35.213 75.0335 36.7426 74.9069C38.2732 74.7792 39.6239 75.8384 39.7598 77.2715L41.2301 92.8326Z" fill="#FFCC33"/>
<path d="M46.7518 95.3228C46.9365 97.2716 45.3977 98.9939 43.313 99.167C41.2307 99.34 39.3923 97.8987 39.2088 95.9477L37.2774 75.532C37.0916 73.5809 38.6316 71.861 40.7139 71.6879C42.7985 71.5149 44.6347 72.955 44.8205 74.9072L46.7518 95.3228Z" fill="#382040"/>
<path d="M95.6161 85.2004C95.2178 89.4046 97.1654 92.999 99.9643 93.2336C102.763 93.4647 105.354 90.2431 105.753 86.0413C106.15 81.8395 104.203 78.2462 101.403 78.0116C98.6055 77.7816 96.0133 80.9986 95.6161 85.2004Z" fill="#EE97BC"/>
<path d="M95.7869 92.8326C95.6511 94.2634 96.7822 95.5293 98.3106 95.6559C99.8413 95.7825 101.19 94.7256 101.324 93.2902L102.798 77.7314C102.934 76.2982 101.803 75.0335 100.274 74.9069C98.7438 74.7792 97.3931 75.8384 97.2573 77.2715L95.7869 92.8326Z" fill="#FFCC33"/>
<path d="M90.2641 95.3228C90.0794 97.2716 91.617 98.9939 93.6993 99.167C95.784 99.34 97.6213 97.8987 97.8059 95.9477L99.7385 75.532C99.922 73.5809 98.3831 71.861 96.2997 71.6879C94.2173 71.5149 92.3789 72.955 92.1942 74.9072L90.2641 95.3228Z" fill="#382040"/>
<path d="M59.5985 87.6606H53.9555L53.1844 90.1436H48.0767L54.4293 72.5605H59.5358L65.6504 90.1436H60.3511L59.5985 87.6606ZM58.3757 83.4971L56.831 78.3557L55.2434 83.4971H58.3757Z" fill="#191919"/>
<path d="M72.5157 80.6416V84.1524H66.5068V80.6416H72.5157Z" fill="#191919"/>
<path d="M87.6623 72.5617V76.1979L80.6453 85.6793H87.8133V90.1448H74.0151V86.5074L81.0321 77.026H74.2729V72.5605L87.6623 72.5617Z" fill="#191919"/>
<path d="M111.402 79.1647C110.983 79.3226 110.502 79.052 110.329 78.5596C110.156 78.0672 110.357 77.5399 110.776 77.3808L116.374 75.2706C116.793 75.1127 117.274 75.3833 117.447 75.8757C117.62 76.3681 117.419 76.8965 117 77.0545L111.402 79.1647Z" fill="#191919"/>
<path d="M112.209 87.2858C111.763 87.2707 111.413 86.834 111.43 86.3102C111.446 85.7864 111.821 85.373 112.267 85.3881L118.22 85.5844C118.666 85.5995 119.016 86.0361 118.999 86.5599C118.983 87.0837 118.608 87.496 118.162 87.482L112.209 87.2858Z" fill="#191919"/>
<path d="M110.448 93.2493C110.067 93.0077 109.545 93.175 109.281 93.6232C109.017 94.0704 109.114 94.629 109.495 94.8706L114.58 98.0864C114.961 98.3279 115.484 98.1595 115.748 97.7124C116.011 97.2653 115.916 96.7067 115.534 96.4651L110.448 93.2493Z" fill="#191919"/>
<path d="M25.5992 79.1647C26.0185 79.3226 26.4993 79.052 26.6723 78.5596C26.8454 78.0672 26.6444 77.5399 26.2252 77.3808L20.6274 75.2706C20.2082 75.1127 19.7274 75.3833 19.5543 75.8757C19.3813 76.3681 19.5822 76.8965 20.0014 77.0545L25.5992 79.1647Z" fill="#191919"/>
<path d="M24.791 87.2858C25.237 87.2707 25.5866 86.834 25.5703 86.3102C25.5541 85.7864 25.1789 85.373 24.733 85.3881L18.7798 85.5844C18.3338 85.5995 17.9843 86.0361 18.0005 86.5599C18.0168 87.0837 18.3919 87.496 18.8379 87.482L24.791 87.2858Z" fill="#191919"/>
<path d="M26.5517 93.2493C26.9326 93.0077 27.4552 93.175 27.7189 93.6232C27.9825 94.0704 27.8861 94.629 27.5051 94.8706L22.4207 98.0864C22.0398 98.3279 21.5172 98.1595 21.2535 97.7124C20.9899 97.2653 21.0851 96.7067 21.4672 96.4651L26.5517 93.2493Z" fill="#191919"/>
<path d="M61.9607 56.8891H58.1328V62.1025H61.9607L66.2252 66.6957V52.2959L61.9607 56.8891Z" fill="#FFCC33"/>
<path d="M68.2046 53.8125C69.5564 55.3676 70.381 57.4348 70.381 59.7053C70.381 61.7783 69.6923 63.6806 68.5437 65.1799C70.2463 63.9709 71.3647 61.927 71.3647 59.6077C71.3647 57.1387 70.0953 54.982 68.2046 53.8125Z" fill="#191919"/>
<path d="M70.8491 51.9531C72.6434 54.0169 73.7374 56.7612 73.7374 59.7726C73.7374 62.5227 72.8234 65.0487 71.2986 67.0381C73.5586 65.4331 75.0428 62.7201 75.0428 59.6437C75.044 56.3675 73.3588 53.5059 70.8491 51.9531Z" fill="#191919"/>
<path d="M73.3389 49.5479C75.7057 52.2701 77.1481 55.8889 77.1481 59.8619C77.1481 63.49 75.9427 66.8208 73.9323 69.4443C76.9124 67.3272 78.8716 63.749 78.8716 59.6912C78.8716 55.3709 76.6499 51.5965 73.3389 49.5479Z" fill="#191919"/>
</svg>
