<svg width="137" height="137" viewBox="0 0 137 137" fill="none" xmlns="http://www.w3.org/2000/svg">
<g clip-path="url(#clip0_27103_35527)">
<path d="M60.3312 79.9155C54.05 79.9155 49.5668 75.9269 46.3005 73.014C44.2356 71.1689 42.4533 69.5829 41.0165 69.575H39.3677L39.4619 67.9262C40.2573 53.7613 51.9693 42.679 66.157 42.668C66.7121 42.668 67.2617 42.6837 67.8058 42.7151H68.3632L68.7715 43.0919C73.1762 47.1512 73.2626 51.6501 69.0385 56.4395C67.2381 58.3804 65.3019 60.1909 63.2441 61.857C60.5196 64.2125 57.9443 66.3638 57.0728 68.3267C56.6119 69.1024 56.597 70.065 57.0335 70.8548C57.5674 71.8127 58.8472 72.7549 60.8415 73.6343C62.3796 74.2373 63.8259 75.0546 65.1363 76.0604H65.3483L66.2983 77.2852L65.7958 79.2245H64.8615C63.5589 79.676 62.188 79.899 60.8101 79.8841L60.3312 79.9155Z" fill="#CCD33D"/>
<path d="M66.1805 96.1751C51.769 96.1759 39.9455 84.7622 39.4383 70.3594L39.3833 68.687L41.0557 68.7341C42.8694 68.7813 44.6438 70.3673 46.8893 72.3694C50.2262 75.3451 54.3718 79.0432 60.3154 79.0432H60.7865C62.1518 79.0683 63.5086 78.828 64.7829 78.3365C65.0812 78.1795 65.254 78.0146 65.2932 77.8497C65.3325 77.6849 65.356 77.5985 65.0341 77.2059C64.7122 76.8133 63.6209 75.8319 60.496 74.45C59.0191 73.8902 57.7142 72.9535 56.7115 71.7334C55.9083 70.6593 55.7686 69.228 56.3504 68.0197C57.3083 65.8684 59.8207 63.7249 62.7415 61.2438C64.7554 59.6091 66.6523 57.8355 68.4181 55.9362C71.9042 51.9634 72.3439 48.8699 69.9884 45.7293L67.5231 42.4316L71.5587 43.2168C75.4829 44.0051 79.1786 45.6696 82.3702 48.0847L83.2417 48.7442L81.2004 55.5044L83.3674 57.6714L86.5472 51.9005L87.9919 53.9341C90.0686 56.8431 91.5376 60.1407 92.3102 63.6307L92.5693 64.8163L91.4937 65.358C87.3167 67.4779 87.1753 68.6792 86.9084 70.8541C86.6179 73.2095 86.2253 76.5228 79.2218 82.3643C77.2887 83.8436 75.6399 85.6604 74.3539 87.7269C73.3308 89.5367 72.9775 91.6495 73.3567 93.694L73.6001 95.1937L72.1554 95.5234C70.1941 95.9631 68.1904 96.1822 66.1805 96.1751Z" fill="#73DDCD"/>
<path d="M94.0613 57.6086L95.3882 53.2196L89.7665 47.9277L83.5638 59.1161L80.2112 55.7635L84.1919 42.6593L79.4182 38.1604C78.407 37.252 78.0764 35.8058 78.5938 34.5487C79.0013 33.5908 79.7637 32.8285 80.7216 32.421H80.8001C81.166 32.2812 81.5546 32.209 81.9464 32.209C82.8454 32.2255 83.6973 32.6118 84.3019 33.2768L88.7929 38.0426L101.913 34.0776L105.265 37.4302L94.077 43.6094L99.3689 49.2232L103.766 47.8963L106.49 50.6207L101.159 53.5808L100.209 54.0518L99.7771 54.9312L96.7543 60.333L94.0613 57.6086Z" fill="white"/>
<path d="M72.4144 93.6245C72.0776 91.4614 72.4819 89.2481 73.5607 87.3433C74.9151 85.1716 76.655 83.2668 78.6956 81.7216C85.4322 76.1 85.762 73.1478 86.076 70.7688C86.3351 68.6253 86.7984 66.9608 90.4572 64.9508L92.4907 63.8359L92.7419 66.1443C92.8739 67.2333 92.939 68.3293 92.9382 69.4262C92.9539 76.5294 90.1266 83.343 85.0867 88.3483C82.1095 91.3209 78.4766 93.5531 74.4794 94.865L72.6971 95.446L72.4144 93.6245Z" fill="#CCD33D"/>
<path d="M40.6472 93.4989C40.1879 93.959 40.1879 94.7034 40.6472 95.1635C41.4222 95.9486 42.2403 96.6906 43.0969 97.3854C43.5562 97.8455 44.3021 97.8463 44.7622 97.3862C45.2223 96.9261 45.2231 96.181 44.763 95.7209C44.7324 95.6903 44.7002 95.6612 44.6664 95.6345L44.5879 95.5717C43.8027 94.9201 43.0176 94.2213 42.2952 93.4989C41.8383 93.0498 41.105 93.0498 40.6472 93.4989Z" fill="#2B1B19"/>
<path d="M31.2337 66.3015H31.3829C31.9788 66.3015 32.4813 65.8571 32.5527 65.2651C32.6784 64.2444 32.8511 63.2159 33.0709 62.2188C33.3135 61.615 33.0215 60.9295 32.4177 60.6869C31.8139 60.4443 31.1285 60.7364 30.8859 61.3402C30.8364 61.4627 30.8081 61.593 30.8018 61.7249C30.5663 62.8006 30.3857 63.8919 30.2522 64.9833C30.1674 65.6153 30.6032 66.201 31.2337 66.3015Z" fill="#2B1B19"/>
<path d="M35.5123 86.4078C34.9533 86.7399 34.7696 87.463 35.1025 88.022C35.1033 88.0228 35.104 88.0244 35.104 88.0252C35.6694 88.9673 36.2818 89.8938 36.9334 90.781C37.3354 91.2922 38.0758 91.3817 38.587 90.9797C39.0738 90.5973 39.1813 89.9032 38.8335 89.3913C38.2289 88.5591 37.6558 87.6954 37.1297 86.816C36.7976 86.257 36.0745 86.0733 35.5155 86.4062C35.5147 86.4062 35.5131 86.407 35.5123 86.4078Z" fill="#2B1B19"/>
<path d="M32.207 78.2499C31.5891 78.4392 31.2381 79.0908 31.4218 79.7103C31.7359 80.7624 32.0971 81.8145 32.5054 82.8509C32.7503 83.4641 33.4467 83.7633 34.06 83.5183C34.6732 83.2733 34.9723 82.5769 34.7273 81.9637C34.3505 81.0137 34.005 80.0322 33.7145 79.0429C33.5253 78.425 32.8736 78.0741 32.2541 78.2578L32.207 78.2499Z" fill="#2B1B19"/>
<path d="M33.1572 57.7119C33.761 57.953 34.4464 57.6586 34.6875 57.0548C34.6875 57.054 34.6882 57.0532 34.6882 57.0524C35.0581 56.0906 35.4797 55.1492 35.9523 54.2337C36.2452 53.6527 36.0112 52.9445 35.4302 52.6517C34.8492 52.3588 34.141 52.5928 33.8481 53.1738C33.3535 54.1552 32.8981 55.1681 32.4977 56.1966C32.2668 56.7972 32.5605 57.4717 33.1572 57.7119Z" fill="#2B1B19"/>
<path d="M31.3905 75.0869H31.5868C32.2322 75.0052 32.6891 74.4163 32.6083 73.7709C32.6083 73.7702 32.6083 73.7686 32.6075 73.7678C32.4819 72.7471 32.3955 71.7107 32.3562 70.69C32.3327 70.0399 31.7854 69.5319 31.1353 69.5555C30.4852 69.579 29.9772 70.1263 30.0008 70.7764C30.0188 71.8803 30.1084 72.9819 30.2677 74.074C30.347 74.6393 30.8205 75.0657 31.3905 75.0869Z" fill="#2B1B19"/>
<path d="M59.4833 36.2221H59.711C60.7239 36.0258 61.7524 35.8766 62.7731 35.7746C63.4272 35.7526 63.9406 35.2045 63.9187 34.5505C63.8967 33.8965 63.3486 33.383 62.6946 33.405C62.6444 33.4065 62.5949 33.4113 62.5454 33.4191C61.4541 33.529 60.3549 33.6861 59.2714 33.8981C58.6165 33.9145 58.0991 34.4586 58.1156 35.1127C58.1321 35.7675 58.6762 36.2849 59.3302 36.2684C59.3836 36.2668 59.4378 36.2621 59.4904 36.2535L59.4833 36.2221Z" fill="#2B1B19"/>
<path d="M37.7502 50.0947C38.1294 50.0963 38.4859 49.9149 38.7081 49.6079C39.3127 48.7757 39.9565 47.9591 40.6317 47.1897C41.084 46.7162 41.0659 45.9656 40.5925 45.5134C40.119 45.0611 39.3684 45.0792 38.9162 45.5526C38.8957 45.5738 38.8761 45.5966 38.8573 45.6194C38.1349 46.4045 37.444 47.3153 36.8002 48.2104C36.4186 48.7372 36.5364 49.4737 37.0632 49.8553C37.2634 49.9997 37.5037 50.0782 37.7502 50.079V50.0947Z" fill="#2B1B19"/>
<path d="M71.2446 35.9707H71.4252C72.0753 36.0186 72.6414 35.5294 72.6893 34.8793C72.7372 34.2292 72.2481 33.6631 71.598 33.6152C70.5145 33.4503 69.4074 33.3326 68.3082 33.2698C67.6581 33.2305 67.0991 33.7267 67.0598 34.3768C67.0205 35.0269 67.5168 35.5859 68.1669 35.6252C69.2033 35.7037 70.2318 35.8136 71.2446 35.9707Z" fill="#2B1B19"/>
<path d="M44.5023 43.4223C45.2874 42.7627 46.1197 42.1346 46.9676 41.5536C47.4913 41.1681 47.6036 40.4308 47.2181 39.9071C46.8499 39.407 46.1558 39.279 45.6329 39.6143C44.73 40.2345 43.8427 40.9098 42.9948 41.6086C42.4939 42.0247 42.4256 42.7682 42.8417 43.2691C43.2578 43.7701 44.0013 43.8384 44.5023 43.4223Z" fill="#2B1B19"/>
<path d="M51.145 38.9533C51.3193 38.9517 51.4905 38.9117 51.6475 38.8355C52.574 38.3958 53.5319 37.9954 54.4976 37.6421C55.1155 37.4387 55.4508 36.7729 55.2474 36.155C55.0582 35.5819 54.467 35.2442 53.8773 35.373L53.7124 35.428C52.6737 35.797 51.6569 36.2241 50.6661 36.7078C50.0764 36.9818 49.8205 37.6829 50.0953 38.2726C50.2892 38.6895 50.7085 38.9556 51.1686 38.9533H51.145Z" fill="#2B1B19"/>
<path d="M65.2149 103.29C64.5648 103.273 64.0231 103.786 64.0058 104.436C63.9885 105.086 64.502 105.628 65.1521 105.645H66.1335C66.9187 105.645 67.7038 105.645 68.4419 105.575C69.092 105.534 69.5859 104.972 69.545 104.322C69.5042 103.672 68.9428 103.178 68.2927 103.219C67.2689 103.297 66.2411 103.32 65.2149 103.29Z" fill="#2B1B19"/>
<path d="M98.7641 82.3261C99.3765 82.5459 100.051 82.2271 100.27 81.6155C100.271 81.6139 100.271 81.6132 100.272 81.6116C100.641 80.5752 100.963 79.5152 101.237 78.471C101.432 77.8507 101.087 77.1896 100.466 76.9941C99.8453 76.7986 99.185 77.1441 98.9895 77.7651C98.9737 77.8162 98.9612 77.8688 98.9518 77.9214C98.7005 78.9185 98.3943 79.9078 98.0488 80.8735C97.8643 81.4703 98.1784 82.1086 98.7641 82.3261Z" fill="#2B1B19"/>
<path d="M100.68 64.9032H100.876C101.518 64.7988 101.953 64.1942 101.85 63.5528C101.669 62.4693 101.442 61.3779 101.167 60.318C100.978 59.6953 100.321 59.3428 99.6985 59.5312C99.1081 59.7095 98.7555 60.3132 98.8898 60.9147C99.1489 61.904 99.3609 62.9246 99.5336 63.9375C99.6349 64.4926 100.116 64.8977 100.68 64.9032Z" fill="#2B1B19"/>
<path d="M101.598 33.3557L89.091 37.1401L84.8827 32.6726C83.8101 31.4321 82.064 31.0183 80.5486 31.6441H80.478C79.3356 32.1144 78.4279 33.022 77.9576 34.1644C77.8391 34.4628 77.7551 34.7737 77.7064 35.0909L77.2274 34.926C76.6072 34.7266 75.9429 35.0673 75.7435 35.6876C75.5441 36.3079 75.8848 36.9721 76.5051 37.1715C77.1097 37.3678 77.7142 37.5877 78.3188 37.8153C78.501 38.1004 78.7137 38.3634 78.9548 38.6005L83.4066 42.8089L82.1346 47.0094C69.6939 38.1357 52.4159 41.0266 43.5414 53.4673C34.6668 65.908 37.5586 83.186 49.9992 92.0605C62.4399 100.935 79.7179 98.0434 88.5925 85.6027C95.669 75.6823 95.4217 62.3002 87.984 52.6468L89.994 49.0194L94.6578 53.4163L93.535 57.13C93.396 57.5352 93.4957 57.9843 93.7941 58.292C93.7941 58.292 96.0946 60.569 96.1495 60.6475C96.6905 60.9686 97.3885 60.7896 97.7096 60.2494C97.7128 60.2431 97.7167 60.2376 97.7198 60.2314L100.79 54.6018L106.333 51.579C106.908 51.3144 107.16 50.6337 106.894 50.0582C106.839 49.9381 106.763 49.8281 106.671 49.7339L104.606 47.5433C104.307 47.2458 103.87 47.1374 103.467 47.2607L99.7141 48.3992L95.3173 43.7354L105.187 38.2393C105.761 37.9747 106.013 37.294 105.748 36.7185C105.692 36.5984 105.617 36.4884 105.524 36.3942L102.753 33.6226C102.447 33.3266 102.003 33.2238 101.598 33.3557ZM48.2711 51.5869C53.0087 46.8516 59.4352 44.1963 66.1333 44.2065C66.657 44.2065 67.1799 44.2222 67.7036 44.2536C72.1554 48.3599 70.8442 52.1051 67.8606 55.4812C66.1003 57.3483 64.2112 59.0905 62.2075 60.6946C59.3103 63.16 56.6094 65.4605 55.5887 67.7609C54.3796 70.4933 55.2668 72.9665 60.1504 75.1256C62.5923 76.2092 63.9192 77.0493 64.4374 77.6852C64.508 77.7716 64.5787 77.6852 64.563 77.6852C64.5088 77.6892 64.4554 77.7025 64.406 77.7245C63.2235 78.1744 61.9649 78.3911 60.7 78.3605C54.78 78.6117 50.5638 74.8273 47.2897 71.8987C44.9342 69.8023 42.9792 68.0593 40.9457 68.0436C41.2778 61.8433 43.8861 55.9829 48.2711 51.5869ZM91.4544 69.4726C91.4465 80.4238 84.3974 90.1283 73.9848 93.5217C73.6927 91.6813 74.0335 89.7969 74.9505 88.1748C76.195 86.1766 77.7904 84.421 79.6614 82.9928C86.9083 76.9472 87.3166 73.571 87.6307 70.9722C87.827 69.3312 87.9761 68.1064 91.2188 66.3241C91.3484 67.366 91.4143 68.415 91.4151 69.4647L91.4544 69.4726ZM89.9861 60.9773C90.3371 61.9658 90.6252 62.9755 90.8498 64.0001C85.9112 66.5126 85.6914 68.3027 85.393 70.7445C85.126 72.9429 84.7806 75.8166 78.2324 81.2812C76.1353 82.8861 74.3514 84.8631 72.9719 87.1149C71.7691 89.2411 71.3522 91.7237 71.7942 94.1263C58.1742 97.2394 44.6092 88.7229 41.4953 75.1021C41.1388 73.5444 40.9316 71.9568 40.875 70.3598C42.1234 70.3598 43.7408 71.8437 45.7272 73.6103C49.3232 76.8216 53.9242 80.92 60.7786 80.6767C62.3936 80.7041 63.9969 80.3995 65.4895 79.7816C66.1184 79.5036 66.5949 78.9642 66.7928 78.3055C66.96 77.5706 66.7481 76.8012 66.2275 76.2563C65.4895 75.3533 63.8721 74.2855 61.0926 73.045C57.7714 71.5768 57.0491 70.1478 57.7008 68.6874C58.4859 66.8502 61.0141 64.7617 63.6993 62.4062C65.7917 60.715 67.7625 58.8785 69.5958 56.9102C72.8777 53.1729 74.5658 49.0587 71.2289 44.6383C74.9372 45.3967 78.4264 46.9828 81.4358 49.2785L79.63 55.2378C79.4965 55.6461 79.6025 56.0944 79.9048 56.3998C79.9048 56.3998 82.8334 59.3049 82.9276 59.3598C83.4686 59.681 84.1666 59.502 84.4877 58.9618C84.4909 58.9555 84.4948 58.95 84.4979 58.9437L86.7827 54.8138C88.1292 56.7108 89.2073 58.7851 89.9861 60.9773ZM92.9069 42.4477C92.351 42.7422 92.1398 43.4315 92.4342 43.9866C92.4397 43.9968 92.4452 44.0078 92.4515 44.018C92.4986 44.1044 98.505 50.4955 98.505 50.4955C98.8026 50.8104 99.2532 50.9289 99.667 50.8017L103.459 49.6554L104.048 50.2443L100.515 52.1993L99.5021 52.7018C99.2752 52.8141 99.0931 52.9993 98.9839 53.2278L98.4814 54.2485L96.5264 57.7817L95.9533 57.1536L97.0917 53.3927C97.2244 52.9522 97.0784 52.4749 96.7227 52.1836L90.5279 46.3578C90.0835 45.9134 89.3627 45.9134 88.9183 46.3578C88.8398 46.4441 83.2652 56.4862 83.2652 56.4862L82.0483 55.2692L85.8484 42.7461C85.9842 42.3033 85.839 41.822 85.4794 41.5291L80.5172 36.936C79.9715 36.4735 79.7902 35.7104 80.0697 35.0516C80.3201 34.4808 80.7771 34.027 81.3495 33.7797H81.3887C82.0388 33.5284 82.7769 33.7177 83.226 34.2508L87.9369 39.2286C88.2329 39.5466 88.6836 39.6683 89.0989 39.5427L101.661 35.7504L102.878 36.9674L92.9069 42.4477Z" fill="#2B1B19"/>
<path d="M97.4296 85.2848C96.8666 84.9903 96.1726 85.1953 95.8593 85.748C95.3646 86.6509 94.8229 87.5381 94.2419 88.3861C93.8666 88.9192 93.9953 89.6557 94.5285 90.031C95.0616 90.4063 95.798 90.2775 96.1733 89.7444C96.7858 88.8336 97.3668 87.8836 97.9007 86.9257C98.2289 86.3659 98.0428 85.6467 97.4845 85.3162L97.4296 85.2848Z" fill="#2B1B19"/>
<path d="M102.25 72.7461C102.352 71.6547 102.399 70.5477 102.399 69.4485V69.2836C102.395 68.6358 101.869 68.1137 101.222 68.1137C100.571 68.0964 100.031 68.6091 100.013 69.2592C100.013 69.2671 100.013 69.2749 100.012 69.2836C100.012 69.2836 100.012 69.2836 100.012 69.3307V69.4642C100.012 70.4927 99.9653 71.5291 99.8711 72.5577C99.8122 73.2054 100.29 73.7786 100.937 73.8374C100.938 73.8374 100.938 73.8374 100.939 73.8374H101.049C101.676 73.8516 102.205 73.3719 102.25 72.7461Z" fill="#2B1B19"/>
<path d="M56.8372 102.009C56.224 101.792 55.5504 102.114 55.3337 102.727C55.117 103.341 55.4389 104.014 56.0521 104.231H56.1934C57.2455 104.529 58.329 104.788 59.4125 105.016H59.6324C60.2785 105.121 60.8878 104.682 60.993 104.036C61.0982 103.39 60.6593 102.781 60.0132 102.676C59.9598 102.667 59.9064 102.662 59.853 102.661C58.8347 102.508 57.8273 102.29 56.8372 102.009Z" fill="#2B1B19"/>
<path d="M76.6464 101.647C75.6728 101.974 74.6788 102.236 73.6706 102.432C73.0355 102.575 72.6366 103.206 72.7795 103.842C72.9224 104.477 73.5537 104.876 74.1888 104.733C75.2566 104.489 76.3323 104.191 77.3765 103.853C77.9866 103.629 78.2991 102.951 78.0745 102.341C77.8618 101.763 77.2391 101.447 76.6464 101.616V101.647Z" fill="#2B1B19"/>
<path d="M49.0328 98.6643C48.4934 98.3007 47.7617 98.4428 47.3981 98.9822C47.0346 99.5216 47.1767 100.253 47.7161 100.617C47.7554 100.644 47.797 100.668 47.8394 100.689C48.7894 101.247 49.7709 101.765 50.768 102.259C51.3576 102.537 52.0611 102.284 52.3383 101.694C52.6155 101.104 52.3626 100.401 51.773 100.124C50.8387 99.6692 49.92 99.1668 49.0328 98.6643Z" fill="#2B1B19"/>
<path d="M90.8418 92.6103C90.143 93.3695 89.4042 94.0903 88.6277 94.7694C88.1416 95.2028 88.1 95.9479 88.5334 96.4339C88.9668 96.9199 89.7119 96.9616 90.198 96.5282C90.9831 95.798 91.8154 95.0207 92.5534 94.2198C92.9923 93.7393 92.9585 92.9942 92.478 92.5561C92.0061 92.125 91.2768 92.1494 90.8339 92.6103H90.8418Z" fill="#2B1B19"/>
<path d="M84.3094 98.0286C83.4458 98.5782 82.5428 99.0964 81.6321 99.5989C81.0534 99.8957 80.8249 100.606 81.1217 101.185C81.4185 101.764 82.1291 101.992 82.7077 101.695C83.6813 101.193 84.647 100.635 85.5735 100.046C86.1137 99.6837 86.2574 98.9527 85.8954 98.4125C85.5586 97.9108 84.8975 97.7451 84.3644 98.0286H84.3094Z" fill="#2B1B19"/>
</g>
<defs>
<clipPath id="clip0_27103_35527">
<rect width="77" height="77" fill="white" transform="translate(30 30)"/>
</clipPath>
</defs>
</svg>
