<svg width="137" height="137" viewBox="0 0 137 137" fill="none" xmlns="http://www.w3.org/2000/svg">
<path d="M59.0272 89.5744C55.3077 89.5744 52.0733 88.64 49.3062 86.7893C46.539 84.9385 44.0772 82.4588 41.903 79.3502C39.7288 76.2416 37.6444 72.8096 35.6499 69.0361L38.9022 67.1494C40.3757 69.8268 41.903 72.4143 43.4843 74.8939C45.0476 77.3736 46.8624 79.4041 48.9108 80.9674C50.9593 82.5307 53.4749 83.3213 56.4397 83.3213C58.3265 83.3213 60.1054 82.908 61.7944 82.0814C63.4835 81.2549 64.8671 80.1049 65.9452 78.6135C67.0233 77.14 67.5804 75.3971 67.5804 73.4025C67.5804 71.3002 66.8796 69.701 65.478 68.6049C64.0765 67.5268 62.4413 66.9697 60.5546 66.9697C58.9554 66.9697 57.3022 67.2932 55.5952 67.958C53.8882 68.6229 52.3788 69.2518 51.0671 69.8807L47.3835 63.6275C48.9288 62.765 50.6179 61.9924 52.4687 61.3096C54.3194 60.6268 56.2241 60.2854 58.1647 60.2854H58.9374C60.4827 59.315 61.6507 58.165 62.4413 56.8174C63.2319 55.4697 63.6452 54.1221 63.6452 52.7564C63.6452 51.265 63.178 50.0432 62.2796 49.0729C61.3632 48.1025 59.9077 47.6174 57.9132 47.6174C56.314 47.6174 54.2655 47.9947 51.7499 48.7674C49.2343 49.54 46.8085 50.6721 44.4726 52.1455L40.6991 45.7307C43.2147 44.2393 45.7304 43.1611 48.2819 42.4783C50.8335 41.7955 53.0077 41.4541 54.8226 41.4541C57.446 41.4541 59.6741 42.0111 61.489 43.1252C63.3218 44.2393 64.7952 45.6408 65.9452 47.3658C67.0952 49.0729 67.9218 50.8338 68.4788 52.6307C69.0179 54.4275 69.2874 56.0088 69.2874 57.3744C69.2874 58.2908 69.1437 59.2611 68.8562 60.2854C68.5687 61.3096 67.8858 62.4236 66.8077 63.6275C67.1491 63.915 67.5265 64.3104 67.9218 64.8314C68.8921 65.9096 70.0241 66.8799 71.2999 67.7424C72.5757 68.6049 74.4804 69.0182 76.996 69.0182C80.1405 69.0182 82.7819 68.0838 84.9562 66.1971L85.1358 49.001H75.9718L73.0608 43.4307V42.5682H99.421L102.332 48.1385V49.001H92.3233L92.503 96.4924H91.6405L84.7944 92.0361L84.8843 74.84C84.4351 75.0197 83.9499 75.1275 83.4288 75.1814C82.9077 75.2354 82.3687 75.2713 81.8116 75.2713C80.2124 75.2713 78.6312 74.9838 77.0679 74.4088C75.5046 73.8338 74.139 73.1869 73.0069 72.4322L72.6655 72.5939C73.0069 73.3846 73.2405 74.2111 73.3843 75.0377C73.528 75.8643 73.5999 76.6549 73.5999 77.3916C73.5999 79.7275 72.953 81.8119 71.6772 83.6447C70.4015 85.4775 68.6765 86.915 66.5023 87.9752C64.328 89.0354 61.8304 89.5924 59.0272 89.5744Z" fill="black"/>
</svg>
