<svg width="137" height="137" viewBox="0 0 137 137" fill="none" xmlns="http://www.w3.org/2000/svg">
<g clip-path="url(#clip0_27103_35482)">
<path d="M69.5558 49.1317L70.7998 44.3877C70.9313 43.8858 70.6533 43.3673 70.1626 43.1992L69.2036 42.8708C68.995 42.7994 68.8162 42.6604 68.6956 42.4759L65.4052 37.4456C65.0312 36.8736 65.3347 36.1036 65.9985 35.9411C66.6376 35.7845 66.9494 35.0603 66.6237 34.4885L66.1832 33.7154C66.0213 33.4312 66.0102 33.0853 66.1534 32.7911L69.428 26.0688C69.6527 25.6075 69.4879 25.0509 69.0484 24.7863L66.9207 23.5051C66.7511 23.403 66.5549 23.354 66.3574 23.3646L59.7516 23.7141C59.5973 23.7221 59.4431 23.6942 59.3014 23.632L51.2072 20.0833C50.9136 19.9547 50.5758 19.9759 50.3005 20.1407L47.3678 21.8963C46.7913 22.2414 46.7184 23.0482 47.2235 23.4911L48.9458 25.0007C49.1538 25.1833 49.2763 25.4444 49.283 25.721L49.4204 31.2576C49.4264 31.4972 49.519 31.7265 49.6811 31.903L53.9059 36.5035C54.1943 36.8176 54.2494 37.2812 54.0425 37.654L50.486 44.0654C50.1731 44.6298 50.5624 45.339 50.0913 45.8567L45.3311 51.0888L59.9331 53.2774L74.1404 51.0888L69.5558 49.1317Z" fill="#FF705B"/>
<path d="M64.5909 82.1094L47.9795 84.2979L52.2211 95.7618L59.8388 116.352C60.3262 117.669 61.7952 118.335 63.1075 117.834C63.6673 117.62 64.138 117.206 64.4249 116.681C64.6081 116.345 64.753 115.998 64.994 115.697C65.3441 115.258 65.7056 114.828 66.0613 114.393L68.4519 111.526C68.7331 111.189 68.9216 110.784 68.9986 110.352L70.2569 103.276C70.3304 102.863 70.2998 102.438 70.1679 102.04L69.6754 100.553C69.5047 100.038 69.5045 99.4818 69.675 98.9665L70.9793 95.0237C71.1659 94.4595 71.5454 93.9794 72.0511 93.6674L72.8625 93.1671C73.1753 92.9744 73.5265 92.8519 73.8913 92.8088L74.1723 92.7755C74.8677 92.6934 75.4978 92.3263 75.912 91.7618C76.2917 91.2444 76.6454 90.6922 77.0575 90.2005C77.7769 89.3419 78.8648 89.2923 79.627 88.5297L81.543 86.613C81.7765 86.3793 81.9621 86.1019 82.0889 85.7968L82.7117 84.2973L64.5909 82.1094Z" fill="#42A555"/>
<path d="M52.2207 95.7613L59.8385 116.351C60.3258 117.668 61.7948 118.335 63.1071 117.833C63.667 117.62 64.1377 117.206 64.4246 116.68C64.6077 116.344 64.7526 115.998 64.9936 115.696C65.3437 115.258 65.7053 114.827 66.0609 114.393L68.4516 111.526C68.7327 111.188 68.9213 110.783 68.9982 110.351L70.2565 103.275C70.33 102.862 70.2994 102.437 70.1675 102.039L69.675 100.553C69.5043 100.038 69.5041 99.4813 69.6747 98.9661L70.9789 95.0233C71.1655 94.459 71.5451 93.979 72.051 93.667L72.8623 93.1666C73.1751 92.9739 73.5263 92.8514 73.8911 92.8083L74.1721 92.775C74.8675 92.6929 75.4976 92.3258 75.9118 91.7613C76.2916 91.244 76.6453 90.6918 77.0574 90.2C77.7767 89.3414 78.8646 89.2918 79.6268 88.5293L81.5428 86.6125C81.7763 86.3788 81.962 86.1015 82.0887 85.7964L82.7115 84.2969H71.1569C65.9298 89.5261 59.4564 93.5083 52.2207 95.7613Z" fill="#427451"/>
<path d="M120.204 51.0883L118.69 48.859C118.526 48.6169 118.25 48.4751 117.957 48.4827L112.69 48.6205C112.411 48.6278 112.153 48.7702 111.998 49.0022L111.525 49.7108C111.459 49.8095 111.373 49.8934 111.273 49.9573L109.506 51.0881L105.075 53.9238C104.852 54.0664 104.708 54.304 104.683 54.5675L104.517 56.3512C104.475 56.7928 104.105 57.1305 103.661 57.1305H100.182C99.9841 57.1305 99.7924 57.0621 99.6391 56.9373L95.3876 53.4736C94.9526 53.1193 94.3001 53.2704 94.065 53.7797L92.1731 57.8788C91.9783 58.3009 91.4833 58.4913 91.0559 58.3089L84.5251 55.5209C83.587 66.7247 78.6564 76.7934 71.1567 84.2958H82.7112L82.9843 83.6381C83.0591 83.458 83.1929 83.3087 83.3639 83.2149L89.0565 80.0866C89.298 79.9537 89.4613 79.7129 89.4954 79.4392L89.7674 77.2413C89.7955 77.0124 89.9149 76.8047 90.0981 76.6644L92.823 74.5802C93.0192 74.4301 93.2705 74.3718 93.5126 74.42L95.4271 74.8013C96.0529 74.9259 96.5914 74.349 96.4237 73.733L93.8169 64.1579C93.7034 63.7409 93.9174 63.3041 94.3169 63.1387L98.7602 61.2968C99.0224 61.1881 99.3216 61.216 99.5589 61.3712L102.085 63.0221C102.198 63.096 102.327 63.1423 102.462 63.1569L105.285 63.4668C105.928 63.5372 106.266 64.2663 105.903 64.802L104.192 67.333C103.795 67.9194 104.238 68.7069 104.945 68.6724C105.227 68.6587 105.498 68.784 105.67 69.0084L107.696 71.6555C108.155 72.255 109.108 72.0136 109.226 71.2681L109.82 67.529C109.896 67.0499 110.354 66.7285 110.83 66.8198L112.131 67.069C112.608 67.1603 113.065 66.8395 113.142 66.3604L113.925 61.4426C114.03 60.7834 114.782 60.3595 115.001 59.7387C115.23 59.0876 114.928 57.9659 115.766 57.6746L120.592 55.9977C120.877 55.8989 121.088 55.6587 121.151 55.3643L121.541 53.5242C121.589 53.2954 121.543 53.0569 121.411 52.8634L120.204 51.0883Z" fill="#97AEBD"/>
<path d="M71.1565 84.2969H47.9795L52.2211 95.7608C59.4564 93.5079 65.9298 89.5257 71.1565 84.2969Z" fill="#42A555"/>
<path d="M45.331 51.0898L43.4561 53.1501C43.272 53.3525 42.9868 53.4284 42.7265 53.3452L39.7277 52.3843C39.3652 52.2681 38.9767 52.4638 38.8536 52.824L37.5442 56.6636C37.4475 56.9475 37.5426 57.2615 37.7807 57.4436L38.4308 57.9408C38.5167 58.0067 38.5864 58.0917 38.6338 58.1887L41.0427 63.1186C41.0875 63.2105 41.1118 63.3111 41.1135 63.4135L41.1449 65.2886C41.1499 65.5875 40.9638 65.8566 40.6823 65.9575L34.9041 68.0287C34.323 68.2372 34.2782 69.0416 34.8325 69.3132L37.054 70.4016C37.5679 70.6533 37.5775 71.3824 37.0704 71.6476L36.3171 72.0417C35.9484 72.2345 35.8292 72.7046 36.061 73.0499L38.0257 75.9761C38.0939 76.0774 38.1871 76.1591 38.2964 76.2131L41.6739 77.8793C41.9733 78.027 42.3356 77.942 42.538 77.6766L45.2439 74.1294C45.6556 73.5898 46.5169 73.8953 46.497 74.5735L46.4777 75.2306C46.4748 75.3309 46.4934 75.4304 46.5324 75.5225L47.8698 78.6916C47.9234 78.8185 47.9381 78.9584 47.9125 79.0935L47.3176 82.2226C47.294 82.3474 47.3047 82.4763 47.3486 82.5953L47.9785 84.2979H71.1557C78.6554 76.7953 83.586 66.7268 84.5241 55.523L74.1397 51.0898H45.331Z" fill="#C7E3F7"/>
</g>
<defs>
<clipPath id="clip0_27103_35482">
<rect width="98" height="98" fill="white" transform="translate(29 20)"/>
</clipPath>
</defs>
</svg>
