<svg width="137" height="137" viewBox="0 0 137 137" fill="none" xmlns="http://www.w3.org/2000/svg">
<path d="M68.3806 96.9292C69.9137 78.949 70.7877 62.0185 68.3806 50.3197C68.3806 50.3197 49.4949 40.8162 30.0481 49.6387C29.6205 49.8353 29.2584 50.1507 29.0051 50.5474C28.7518 50.9441 28.618 51.4053 28.6196 51.876V96.9292H68.3806Z" fill="#A5B4DB"/>
<path d="M68.3804 96.9291C69.5819 77.3901 70.7326 56.9371 72.5554 48.6641C79.2374 46.4058 93.0054 43.3156 106.951 49.6391C107.379 49.8356 107.741 50.1511 107.995 50.5479C108.248 50.9446 108.382 51.4059 108.38 51.8766V96.9291H68.3804Z" fill="#F5FBFF"/>
<path d="M72.5559 48.6641C71.1318 49.1303 69.7375 49.6831 68.3809 50.3193V96.9288H72.5559V48.6641Z" fill="#A5B4DB"/>
<path d="M66.1729 95.9769C60.4729 93.7446 44.5836 88.9436 28.6196 96.9291V104.312C46.8374 99.1401 61.0996 102.145 66.2756 103.631C67.6523 104.027 69.1122 104.029 70.4901 103.638C75.7094 102.154 90.1364 99.1326 108.381 104.313V96.9291C92.3971 88.9339 76.3361 93.7564 70.5921 95.9849C69.1702 96.5364 67.5928 96.5336 66.1729 95.9769Z" fill="#626DA0"/>
<path d="M65.6002 93.1025C61.7055 88.5355 53.4962 81.266 39.5907 79.2953C38.9265 79.2041 38.3177 78.8759 37.8763 78.3712C37.435 77.8666 37.1909 77.2194 37.189 76.549V34.7545C37.1888 34.4632 37.2501 34.1752 37.3691 33.9093C37.4881 33.6434 37.662 33.4057 37.8793 33.2118C38.0967 33.0179 38.3526 32.8721 38.6303 32.7841C38.9079 32.696 39.2011 32.6677 39.4905 32.701C60.9905 35.2303 68.3807 50.3188 68.3807 50.3188V92.072C68.3813 92.3952 68.2827 92.7107 68.0983 92.9762C67.914 93.2416 67.6527 93.4441 67.3496 93.5564C67.0466 93.6687 66.7164 93.6854 66.4036 93.6042C66.0908 93.5231 65.8104 93.348 65.6002 93.1025Z" fill="#F5FBFF"/>
<path d="M46.248 67.5075C48.2772 68.1316 50.1993 69.0616 51.948 70.2652V63.478C50.206 62.2549 48.2825 61.3132 46.248 60.6875V67.5075Z" fill="#A5B4DB"/>
<path d="M46.0548 42.774C46.3268 42.8355 47.0143 43.0018 47.0883 43.0018C47.3009 43.0018 47.5063 42.9244 47.666 42.784C47.8257 42.6436 47.9288 42.4498 47.9561 42.239C47.9834 42.0281 47.9329 41.8145 47.8141 41.6381C47.6954 41.4617 47.5164 41.3346 47.3108 41.2805C47.0231 41.2045 46.7333 41.1334 46.4413 41.0673C46.2156 41.0177 45.9794 41.0594 45.7843 41.1833C45.5892 41.3072 45.4511 41.5032 45.4 41.7286C45.349 41.954 45.3892 42.1905 45.5119 42.3863C45.6345 42.5822 45.8297 42.7216 46.0548 42.774Z" fill="#A5B4DB"/>
<path d="M52.0589 44.9383C57.6909 47.4368 61.7076 51.7768 61.7474 51.8203C61.9199 51.9618 62.1336 52.0435 62.3565 52.0533C62.5793 52.063 62.7994 52.0004 62.9836 51.8746C63.071 51.7987 63.142 51.7059 63.1924 51.6017C63.2427 51.4974 63.2713 51.3841 63.2764 51.2685C63.2815 51.1529 63.2631 51.0374 63.2221 50.9292C63.1812 50.8209 63.1187 50.7222 63.0384 50.6388C62.8661 50.4503 58.7461 45.9904 52.7686 43.3389C52.6636 43.2922 52.5504 43.2668 52.4355 43.2639C52.3206 43.2611 52.2062 43.2809 52.099 43.3222C51.9918 43.3636 51.8937 43.4256 51.8105 43.5048C51.7272 43.5841 51.6604 43.6789 51.6138 43.784C51.5671 43.889 51.5417 44.0022 51.5388 44.1171C51.536 44.232 51.5558 44.3464 51.5971 44.4536C51.6385 44.5608 51.7005 44.6589 51.7797 44.7421C51.859 44.8254 51.9538 44.8922 52.0589 44.9389V44.9383Z" fill="#A5B4DB"/>
<path d="M46.0547 49.2362C54.8622 51.2315 61.6907 58.233 61.7629 58.299C61.8417 58.3833 61.9366 58.451 62.042 58.4979C62.1475 58.5449 62.2613 58.5702 62.3767 58.5723C62.4921 58.5744 62.6067 58.5533 62.7138 58.5102C62.8208 58.4671 62.9182 58.4029 62.9999 58.3215C63.1611 58.1573 63.2533 57.9377 63.2576 57.7077C63.2619 57.4776 63.1779 57.2547 63.0229 57.0847C62.7314 56.7817 55.7707 49.643 46.4414 47.5295C46.2151 47.4782 45.9777 47.5189 45.7814 47.6427C45.5851 47.7664 45.446 47.9631 45.3947 48.1895C45.3434 48.4158 45.3841 48.6532 45.5079 48.8495C45.6317 49.0458 45.8284 49.1849 46.0547 49.2362Z" fill="#A5B4DB"/>
<path d="M46.0547 55.701C54.8622 57.6963 61.6949 64.6933 61.7629 64.7638C61.9365 64.9062 62.153 64.9859 62.3775 64.99C62.602 64.9941 62.8213 64.9223 62.9999 64.7863C63.0851 64.708 63.1535 64.6133 63.2009 64.5079C63.2484 64.4024 63.274 64.2885 63.2762 64.1728C63.2783 64.0572 63.257 63.9424 63.2135 63.8352C63.1699 63.7281 63.1051 63.6309 63.0229 63.5495C62.7314 63.2465 55.7707 56.1078 46.4414 53.9943C46.2151 53.943 45.9777 53.9837 45.7814 54.1075C45.5851 54.2313 45.446 54.428 45.3947 54.6543C45.3434 54.8806 45.3841 55.1181 45.5079 55.3144C45.6317 55.5107 45.8284 55.6498 46.0547 55.701Z" fill="#A5B4DB"/>
<path d="M56.6826 64.9518C56.4801 64.843 56.2429 64.8183 56.0223 64.883C55.8017 64.9477 55.6154 65.0967 55.5037 65.2976C55.3921 65.4986 55.3639 65.7354 55.4255 65.9569C55.487 66.1784 55.6333 66.3668 55.8326 66.4813C58.9476 68.2136 61.7246 71.1846 61.7521 71.2143C61.9246 71.4001 62.5671 71.6331 62.9886 71.2603C63.0737 71.1827 63.1424 71.089 63.1909 70.9846C63.2394 70.8801 63.2666 70.7671 63.2709 70.6521C63.2752 70.537 63.2566 70.4222 63.2161 70.3145C63.1756 70.2067 63.1141 70.1081 63.0351 70.0243C62.9141 69.8943 60.0461 66.8221 56.6826 64.9518Z" fill="#A5B4DB"/>
<path d="M62.9879 77.7232C63.0724 77.6453 63.1407 77.5515 63.1888 77.4471C63.237 77.3426 63.264 77.2298 63.2683 77.1149C63.2726 77 63.2542 76.8854 63.214 76.7777C63.1739 76.67 63.1128 76.5712 63.0344 76.4872C62.9139 76.3572 60.0458 73.285 56.6821 71.4147C56.4796 71.3059 56.2424 71.2812 56.0218 71.3459C55.8012 71.4106 55.6149 71.5596 55.5032 71.7605C55.3916 71.9615 55.3635 72.1983 55.425 72.4198C55.4865 72.6413 55.6328 72.8297 55.8321 72.9442C58.9471 74.6762 61.7241 77.6475 61.7516 77.6772C61.9249 77.8637 62.5786 78.0982 62.9879 77.7232Z" fill="#A5B4DB"/>
<path d="M91.8486 55.291L94.7631 52.777L103.423 62.8161C103.756 63.2026 103.923 63.7057 103.885 64.2147C103.847 64.7237 103.609 65.197 103.223 65.5304C102.836 65.8637 102.333 66.0299 101.824 65.9924C101.315 65.9549 100.842 65.7166 100.509 65.3302L91.8486 55.291Z" fill="#A05858"/>
<path d="M79.4443 54.1309L95.4386 40.3339L102.313 48.3033L86.3188 62.1002L79.4443 54.1309Z" fill="#E28683"/>
<path d="M100.871 49.6219C101.588 50.454 102.845 50.5467 103.677 49.8289C104.509 49.1112 104.602 47.8548 103.884 47.0227L96.9692 39.0066C96.2514 38.1745 94.995 38.0819 94.1629 38.7996C93.3308 39.5174 93.2382 40.7738 93.9559 41.6059L100.871 49.6219Z" fill="#A05858"/>
<path d="M80.9296 52.8058C80.2118 51.9737 78.9554 51.881 78.1233 52.5988C77.2912 53.3166 77.1986 54.573 77.9163 55.4051L84.8311 63.4211C85.5489 64.2532 86.8053 64.3459 87.6374 63.6281C88.4694 62.9103 88.5621 61.6539 87.8444 60.8219L80.9296 52.8058Z" fill="#A05858"/>
<path d="M92.3044 72.502H81.8134C81.251 72.502 80.7116 72.7254 80.3139 73.123C79.9163 73.5207 79.6929 74.0601 79.6929 74.6225V76.0752C84.5722 76.8607 89.5458 76.8607 94.4251 76.0752V74.6222C94.4251 74.3437 94.3702 74.068 94.2636 73.8107C94.157 73.5535 94.0008 73.3197 93.8039 73.1229C93.6069 72.926 93.3732 72.7698 93.1159 72.6633C92.8586 72.5567 92.5828 72.5019 92.3044 72.502Z" fill="#E28683"/>
<path d="M78.7405 76.0742H95.3775C96.0074 76.0742 96.6115 76.3244 97.0569 76.7698C97.5023 77.2152 97.7525 77.8193 97.7525 78.4492V80.1155H76.3652V78.4492C76.3652 78.1373 76.4267 77.8285 76.546 77.5403C76.6654 77.2521 76.8404 76.9903 77.0609 76.7698C77.2815 76.5492 77.5434 76.3743 77.8315 76.2549C78.1197 76.1356 78.4286 76.0742 78.7405 76.0742Z" fill="#A05858"/>
</svg>
