<svg width="136" height="30" viewBox="0 0 136 30" fill="none" xmlns="http://www.w3.org/2000/svg">
<path fill-rule="evenodd" clip-rule="evenodd" d="M26.7261 29.6447H13.5469V16.8199L17.2965 13.1719H30.4733V25.9983L26.7261 29.6447ZM17.2965 14.7289L14.677 17.2755V27.9999L17.2965 25.4535V14.7289ZM15.7155 28.5449H26.2579L28.8749 25.9983H18.3326L15.7155 28.5449Z" fill="#00A9FC"/>
<path d="M30.476 0.367188L17.2969 0.367188L17.2969 13.1918L30.476 13.1918L30.476 0.367188Z" fill="#0065FF"/>
<path fill-rule="evenodd" clip-rule="evenodd" d="M13.5386 16.8402H0.359375V4.01546L4.10221 0.373536V0.367188H17.2836V13.1901L13.5386 16.8402ZM4.10221 1.92869L1.48953 4.47109V15.3138L4.10221 12.7714V1.92869ZM2.64943 15.7405H13.0704L15.6874 13.1901H5.26864L2.64943 15.7405Z" fill="#10D4A3"/>
<path d="M51.5759 4.58594H36.8438V7.26471H42.6448V22.3515H45.7491V7.26471H51.5759V4.58594Z" fill="#253F66"/>
<path d="M69.2849 26.9636V20.7801C70.0609 22.2905 71.6859 22.6786 73.388 22.6786C77.1611 22.6786 79.3134 20.292 79.3134 15.9111C79.3134 11.8473 77.5642 9.21875 73.5853 9.21875C71.5615 9.21875 69.8337 9.68193 69.1863 11.6763L69.0362 9.5608H66.2578V26.9636H69.2849ZM69.2849 16.2532V15.8653C69.2849 12.7986 70.7083 11.7513 72.6377 11.7513C75.0388 11.7513 76.0121 13.5037 76.0121 15.886C76.0121 18.5646 74.8886 20.1459 72.5605 20.1459C70.9612 20.1459 69.2849 19.2697 69.2849 16.2532Z" fill="#253F66"/>
<path d="M87.5026 9.21875C83.1764 9.21875 81.1484 11.7765 81.1484 16.0113C81.1484 20.3922 83.275 22.6786 87.404 22.6786C90.7054 22.6786 92.7807 21.1681 93.2781 18.5396H90.2768C89.9295 19.5868 89.029 20.1459 87.5026 20.1459C85.6032 20.1459 84.5271 19.2949 84.2999 16.9334H93.4537C93.4795 16.5454 93.5052 16.0821 93.5052 15.74C93.5052 11.9933 91.7559 9.21875 87.5026 9.21875ZM84.3254 14.6219C84.5527 12.4816 85.6032 11.7513 87.3782 11.7513C89.0547 11.7513 90.1523 12.5525 90.3796 14.6219H84.3254Z" fill="#253F66"/>
<path d="M106.11 9.5625H95.3051V11.874H102.058L94.9062 20.7068V22.3381H106.063V20.0266H99.0096L106.11 11.2398V9.5625Z" fill="#253F66"/>
<path d="M113.753 9.21875C109.83 9.21875 108.252 10.9712 108.153 13.6498H110.902C111.077 12.3105 111.879 11.7513 113.629 11.7513C115.682 11.7513 116.107 12.6733 116.107 14.0627V14.4508H115.507C110.327 14.4508 107.703 15.5732 107.703 18.8818C107.703 21.3393 109.628 22.6786 111.931 22.6786C113.805 22.6786 115.507 22.3866 116.231 20.7052L116.381 22.3364H119.134V15.0098C119.134 14.2797 119.108 13.7207 119.057 13.0657C118.881 10.8252 117.432 9.21875 113.753 9.21875ZM110.752 18.5147C110.752 16.9084 112.831 16.6663 116.107 16.7873V17.9096C116.107 19.2948 114.503 20.1459 112.904 20.1459C111.605 20.1459 110.752 19.5619 110.752 18.5147Z" fill="#253F66"/>
<path d="M125.129 26.9636V20.7801C125.905 22.2905 127.53 22.6786 129.228 22.6786C133.005 22.6786 135.157 20.292 135.157 15.9111C135.157 11.8473 133.408 9.21875 129.429 9.21875C127.405 9.21875 125.678 9.68193 125.026 11.6763L124.876 9.5608H122.102V26.9636H125.129ZM125.129 16.2532V15.8653C125.129 12.7986 126.552 11.7513 128.477 11.7513C130.878 11.7513 131.856 13.5037 131.856 15.886C131.856 18.5646 130.728 20.1459 128.404 20.1459C126.805 20.1459 125.129 19.2697 125.129 16.2532Z" fill="#253F66"/>
<path d="M54.2543 27.1694L56.0426 22.8017L50.7891 9.5625H54.3417L57.7173 19.7594L61.3945 9.5625H64.6215L57.3478 27.1694H54.2543Z" fill="#253F66"/>
</svg>
