<svg width="137" height="137" viewBox="0 0 137 137" fill="none" xmlns="http://www.w3.org/2000/svg">
<path fill-rule="evenodd" clip-rule="evenodd" d="M43.4554 55.704C43.1274 55.023 42.9489 54.2589 42.9489 53.4577C42.9489 50.5718 45.2825 48.2383 48.1684 48.2383C51.0543 48.2383 53.3878 50.5719 53.3878 53.4577C53.3878 54.2591 53.2051 55.0231 52.877 55.704H59.1137V63.1907C58.4327 62.8627 57.6687 62.6841 56.8631 62.6841C53.9815 62.6841 51.6436 65.0178 51.6436 67.9037C51.6436 70.7895 53.9813 73.1232 56.8631 73.1232C57.6687 73.1232 58.4327 72.9405 59.1137 72.6124V80.0991H47.8401C46.0754 75.6228 43.6712 72.2636 40.5818 67.3639C38.4517 63.988 37.2227 59.9894 37.2227 55.7042H43.4553L43.4554 55.704Z" fill="#FFE100"/>
<path fill-rule="evenodd" clip-rule="evenodd" d="M43.1771 54.9895C43.0277 54.5036 42.9487 53.9887 42.9487 53.4573C42.9487 52.5604 43.173 51.7175 43.5716 50.9824C43.3183 52.3069 43.1854 53.6483 43.1771 54.9895ZM53.4748 80.0985H47.8401C46.0754 75.6223 43.6712 72.2631 40.5818 67.3633C38.4517 63.9875 37.2227 59.9889 37.2227 55.7036H43.1812C43.2061 56.7417 43.3057 57.7797 43.4761 58.8095C44.5349 65.1584 50.8381 72.8443 53.7156 80.0985C53.562 80.0694 53.4832 80.0694 53.4748 80.0985Z" fill="#FCD53A"/>
<path fill-rule="evenodd" clip-rule="evenodd" d="M99.7773 50.3558C99.7773 38.2642 89.9778 28.4648 77.8862 28.4648V32.8124C78.5672 32.4885 79.3313 32.3058 80.1368 32.3058C83.0185 32.3058 85.3563 34.6395 85.3563 37.5253C85.3563 40.4112 83.0186 42.7449 80.1368 42.7449C79.3313 42.7449 78.5672 42.5622 77.8862 42.2383V50.3561H84.5756C84.2517 51.0371 84.069 51.7969 84.069 52.6024C84.069 55.484 86.4068 57.8219 89.2886 57.8219C92.1704 57.8219 94.5081 55.4842 94.5081 52.6024C94.5081 51.7969 94.3254 51.0369 94.0016 50.3561H99.7774L99.7773 50.3558Z" fill="#C6F068"/>
<path fill-rule="evenodd" clip-rule="evenodd" d="M70.383 80.098C72.1477 75.6218 74.552 72.2626 77.6413 67.3628C79.7715 63.987 81.0047 59.9884 81.0047 55.7031H75.2248C75.5527 56.3841 75.7313 57.1439 75.7313 57.9495C75.7313 60.8311 73.3977 63.169 70.5118 63.169C67.6259 63.169 65.2922 60.8313 65.2922 57.9495C65.2922 57.1439 65.4749 56.384 65.803 55.7031H59.1137V63.1898C58.4327 62.8618 57.6686 62.6833 56.8631 62.6833C53.9814 62.6833 51.6436 65.0169 51.6436 67.9028C51.6436 70.7887 53.9813 73.1223 56.8631 73.1223C57.6686 73.1223 58.4327 72.9396 59.1137 72.6115V80.0982L70.383 80.098Z" fill="#FC657C"/>
<path fill-rule="evenodd" clip-rule="evenodd" d="M59.1137 33.8128C47.0222 33.8128 37.2227 43.6122 37.2227 55.7037H43.4553C43.1273 55.0227 42.9487 54.2586 42.9487 53.4574C42.9487 50.5715 45.2824 48.238 48.1683 48.238C51.0541 48.238 53.3876 50.5716 53.3876 53.4574C53.3876 54.2588 53.205 55.0229 52.8769 55.7037H59.1136V47.586C59.7903 47.9099 60.5544 48.0925 61.3599 48.0925C64.2416 48.0925 66.5794 45.7548 66.5794 42.873C66.5794 39.9912 64.2417 37.6535 61.3599 37.6535C60.5544 37.6535 59.7903 37.8361 59.1136 38.16V33.8125L59.1137 33.8128Z" fill="#ADDEFF"/>
<path fill-rule="evenodd" clip-rule="evenodd" d="M59.1137 33.8126C47.0222 33.8126 37.2227 43.612 37.2227 55.7036H43.1812C43.1771 55.4668 43.1729 55.226 43.1771 54.9895C43.0277 54.5036 42.9487 53.9887 42.9487 53.4572C42.9487 52.5603 43.173 51.7174 43.5716 50.9824C43.8789 49.3671 44.3689 47.7769 45.0373 46.2404C47.6657 40.2237 52.8187 35.677 59.1136 33.8125L59.1137 33.8126Z" fill="#91D3FF"/>
<path fill-rule="evenodd" clip-rule="evenodd" d="M51.4487 95.7531V91.7793H66.775V95.7531C66.775 101.62 51.4487 101.62 51.4487 95.7531Z" fill="#5B5F5E"/>
<path fill-rule="evenodd" clip-rule="evenodd" d="M57.3242 91.7793H66.775V95.7531C66.775 97.9207 64.6864 99.2868 62.0497 99.8515C59.417 99.2868 57.3244 97.9207 57.3244 95.7531V91.7793H57.3242Z" fill="#6A6E6D"/>
<path fill-rule="evenodd" clip-rule="evenodd" d="M66.2143 91.7801H52.0093C49.7172 91.7801 47.8403 89.9034 47.8403 87.6112V80.0996H70.3833V87.6112C70.3833 89.9032 68.5063 91.7801 66.2143 91.7801Z" fill="#6A6E6D"/>
<path fill-rule="evenodd" clip-rule="evenodd" d="M66.2143 91.7801H57.8848C55.5927 91.7801 53.7158 89.9034 53.7158 87.6112V80.0996H70.3833V87.6112C70.3833 89.9032 68.5063 91.7801 66.2143 91.7801Z" fill="#777878"/>
<path fill-rule="evenodd" clip-rule="evenodd" d="M96.6923 83.5403V85.7742C96.6923 86.4385 96.1484 86.9783 95.4882 86.9783H93.8023C93.4452 88.4481 92.8681 89.8269 92.104 91.0808L93.2957 92.2726C93.7648 92.7417 93.7648 93.5058 93.2957 93.975L90.1316 97.1391C89.6624 97.6082 88.8983 97.6082 88.4292 97.1391L87.2375 95.9474C85.9834 96.7115 84.6049 97.2886 83.1351 97.6458V99.3316C83.1351 99.9918 82.5953 100.536 81.931 100.536H77.4589C76.7987 100.536 76.2548 99.9918 76.2548 99.3316V97.6458C74.7891 97.2886 73.4105 96.7115 72.1565 95.9474L70.9648 97.1391C70.4957 97.6082 69.7316 97.6082 69.2624 97.1391L66.0983 93.975C65.6292 93.5058 65.6292 92.7417 66.0983 92.2726L67.29 91.0808C66.5259 89.8267 65.9447 88.4481 65.5917 86.9783H63.9058C63.2415 86.9783 62.7017 86.4385 62.7017 85.7742V81.3022C62.7017 80.642 63.2415 80.0981 63.9058 80.0981H65.5917C65.9445 78.6324 66.5259 77.2538 67.29 75.9998L66.0983 74.8081C65.6292 74.3389 65.6292 73.5749 66.0983 73.1057L69.2624 69.9416C69.7316 69.4724 70.4957 69.4724 70.9648 69.9416L72.1565 71.1333C73.4105 70.3692 74.7891 69.792 76.2548 69.4349V67.749C76.2548 67.0847 76.7987 66.5449 77.4589 66.5449H81.931C82.5953 66.5449 83.1351 67.0847 83.1351 67.749V69.4307C84.605 69.7878 85.9836 70.369 87.2375 71.1331L88.4292 69.9415C88.8983 69.4723 89.6624 69.4723 90.1316 69.9415L93.2957 73.1055C93.7648 73.5747 93.7648 74.3388 93.2957 74.808L92.104 75.9996C92.8681 77.2537 93.4452 78.6322 93.8023 80.0979H95.4882C96.1484 80.0979 96.6923 80.6418 96.6923 81.3021V83.5402V83.5403Z" fill="#FFAB5C"/>
<path fill-rule="evenodd" clip-rule="evenodd" d="M83.1351 97.6458V99.3316C83.1351 99.9918 82.5953 100.536 81.931 100.536H77.4589C76.7987 100.536 76.2548 99.9918 76.2548 99.3316V97.6458C74.7891 97.2886 73.4105 96.7115 72.1565 95.9474L70.9648 97.1391C70.4957 97.6082 69.7316 97.6082 69.2624 97.1391L66.0983 93.975C65.6292 93.5058 65.6292 92.7417 66.0983 92.2726L67.29 91.0808C66.5259 89.8267 65.9447 88.4481 65.5917 86.9783H63.9058C63.2415 86.9783 62.7017 86.4385 62.7017 85.7742V81.3022C62.7017 80.642 63.2415 80.0981 63.9058 80.0981H65.5917C65.9445 78.6324 66.5259 77.2538 67.29 75.9998L66.0983 74.8081C65.6292 74.3389 65.6292 73.5749 66.0983 73.1057L69.2624 69.9416C69.7316 69.4724 70.4957 69.4724 70.9648 69.9416L72.1565 71.1333C73.4105 70.3692 74.7891 69.792 76.2548 69.4349V67.749C76.2548 67.0847 76.7987 66.5449 77.4589 66.5449H81.931C82.5953 66.5449 83.1351 67.0847 83.1351 67.749V69.4307C75.3994 69.5096 69.1709 75.8045 69.1709 83.5402C69.1709 91.2759 75.3994 97.5709 83.1351 97.6456V97.6458Z" fill="#F8A04C"/>
<path fill-rule="evenodd" clip-rule="evenodd" d="M79.6969 91.8702C84.2853 91.8702 88.0265 88.129 88.0265 83.5407C88.0265 78.9523 84.2853 75.207 79.6969 75.207C75.1086 75.207 71.3633 78.9525 71.3633 83.5407C71.3633 88.1289 75.1086 91.8702 79.6969 91.8702Z" fill="#E8E8E8"/>
<path fill-rule="evenodd" clip-rule="evenodd" d="M82.0594 75.5469C85.51 76.5683 88.0263 79.7573 88.0263 83.5401C88.0263 87.3229 85.51 90.5119 82.0594 91.5292C78.6088 90.5119 76.0884 87.3188 76.0884 83.5401C76.0884 79.7614 78.6088 76.5683 82.0594 75.5469Z" fill="#F8F8F8"/>
<path d="M83.2427 80.0191C83.5831 79.6785 84.1396 79.6785 84.4843 80.0191C84.829 80.3638 84.829 80.9201 84.4843 81.2648L78.6876 87.0572C78.3472 87.4019 77.7907 87.4019 77.446 87.0572L74.9089 84.5201C74.5642 84.1796 74.5642 83.6232 74.9089 83.2785C75.2536 82.938 75.8099 82.938 76.1505 83.2785L78.0689 85.1928L83.2427 80.019V80.0191Z" fill="#B9E64E"/>
</svg>
